<svg xmlns="http://www.w3.org/2000/svg" xmlns:xlink="http://www.w3.org/1999/xlink" width="500" zoomAndPan="magnify" viewBox="0 0 375 374.999991" height="500" preserveAspectRatio="xMidYMid meet" version="1.0"><defs><g/><clipPath id="1c4b61b069"><path d="M 167 124 L 207 124 L 207 178 L 167 178 Z M 167 124 " clip-rule="nonzero"/></clipPath><clipPath id="79ef6a513c"><path d="M 194.753906 124.605469 L 206.828125 131.890625 L 179.527344 177.128906 L 167.453125 169.839844 Z M 194.753906 124.605469 " clip-rule="nonzero"/></clipPath><clipPath id="f75e71c9f1"><path d="M 194.753906 124.605469 L 206.828125 131.890625 L 179.539062 177.109375 L 167.464844 169.820312 Z M 194.753906 124.605469 " clip-rule="nonzero"/></clipPath><clipPath id="35fced0d33"><path d="M 168 131 L 196 131 L 196 159 L 168 159 Z M 168 131 " clip-rule="nonzero"/></clipPath><clipPath id="504615ae9a"><path d="M 178.839844 131.804688 L 195.296875 141.738281 L 185.171875 158.511719 L 168.714844 148.582031 Z M 178.839844 131.804688 " clip-rule="nonzero"/></clipPath><clipPath id="bab53b259f"><path d="M 178.839844 131.804688 L 195.296875 141.738281 L 185.175781 158.5 L 168.722656 148.570312 Z M 178.839844 131.804688 " clip-rule="nonzero"/></clipPath><clipPath id="48c5d62e94"><path d="M 187 133 L 214 133 L 214 159 L 187 159 Z M 187 133 " clip-rule="nonzero"/></clipPath><clipPath id="3cb1a47ebf"><path d="M 197.007812 133.59375 L 213.503906 143.550781 L 204.464844 158.527344 L 187.96875 148.570312 Z M 197.007812 133.59375 " clip-rule="nonzero"/></clipPath><clipPath id="8f6891696d"><path d="M 197.007812 133.59375 L 213.460938 143.527344 L 204.421875 158.5 L 187.96875 148.570312 Z M 197.007812 133.59375 " clip-rule="nonzero"/></clipPath></defs><rect x="-37.5" width="450" fill="#ffffff" y="-37.499999" height="449.999989" fill-opacity="1"/><rect x="-37.5" width="450" fill="#ffffff" y="-37.499999" height="449.999989" fill-opacity="1"/><g fill="#3d3b3a" fill-opacity="1"><g transform="translate(76.781063, 238.401168)"><g><path d="M 9.125 -2.65625 L 3.203125 -2.65625 L 2.078125 0 L 0.015625 0 L 5.203125 -11.734375 L 7.21875 -11.734375 L 12.359375 0 L 10.25 0 Z M 8.359375 -4.40625 L 6.15625 -9.625 L 3.9375 -4.40625 Z M 8.359375 -4.40625 "/></g></g></g><g fill="#3d3b3a" fill-opacity="1"><g transform="translate(95.867823, 238.401168)"><g><path d="M 11.71875 0 L 9.78125 0 L 3.515625 -8.421875 L 3.515625 0 L 1.546875 0 L 1.546875 -11.734375 L 3.484375 -11.734375 L 9.78125 -3.296875 L 9.78125 -11.734375 L 11.71875 -11.734375 Z M 11.71875 0 "/></g></g></g><g fill="#3d3b3a" fill-opacity="1"><g transform="translate(115.860235, 238.401168)"><g><path d="M 3.515625 0 L 1.546875 0 L 1.546875 -11.734375 L 3.515625 -11.734375 Z M 3.515625 0 "/></g></g></g><g fill="#3d3b3a" fill-opacity="1"><g transform="translate(127.63465, 238.401168)"><g><path d="M 9.375 0 L 5.515625 -5.1875 L 3.515625 -2.984375 L 3.515625 0 L 1.546875 0 L 1.546875 -11.734375 L 3.515625 -11.734375 L 3.515625 -5.671875 L 9.125 -11.734375 L 11.453125 -11.734375 L 6.90625 -6.71875 L 11.75 0 Z M 9.375 0 "/></g></g></g><g fill="#3d3b3a" fill-opacity="1"><g transform="translate(146.385986, 238.401168)"><g><path d="M 9.921875 -9.953125 L 3.515625 -9.953125 L 3.515625 -6.796875 L 9.25 -6.796875 L 9.25 -5.015625 L 3.515625 -5.015625 L 3.515625 -1.78125 L 10.125 -1.78125 L 10.125 0 L 1.546875 0 L 1.546875 -11.734375 L 9.921875 -11.734375 Z M 9.921875 -9.953125 "/></g></g></g><g fill="#3d3b3a" fill-opacity="1"><g transform="translate(164.097489, 238.401168)"><g><path d="M 9.5625 -9.953125 L 5.828125 -9.953125 L 5.828125 0 L 3.859375 0 L 3.859375 -9.953125 L 0.15625 -9.953125 L 0.15625 -11.734375 L 9.5625 -11.734375 Z M 9.5625 -9.953125 "/></g></g></g><g fill="#3d3b3a" fill-opacity="1"><g transform="translate(180.517584, 238.401168)"><g/></g></g><g fill="#3d3b3a" fill-opacity="1"><g transform="translate(191.554061, 238.401168)"><g><path d="M 13.953125 0 L 12.125 0 L 12.109375 -8.765625 L 8.40625 -1.21875 L 7.109375 -1.21875 L 3.40625 -8.765625 L 3.40625 0 L 1.546875 0 L 1.546875 -11.734375 L 3.890625 -11.734375 L 7.765625 -3.9375 L 11.625 -11.734375 L 13.953125 -11.734375 Z M 13.953125 0 "/></g></g></g><g fill="#3d3b3a" fill-opacity="1"><g transform="translate(213.777071, 238.401168)"><g><path d="M 2.359375 -10.078125 C 3.554688 -11.210938 5.03125 -11.78125 6.78125 -11.78125 C 8.539062 -11.78125 10.019531 -11.210938 11.21875 -10.078125 C 12.414062 -8.941406 13.015625 -7.535156 13.015625 -5.859375 C 13.015625 -4.191406 12.414062 -2.785156 11.21875 -1.640625 C 10.019531 -0.492188 8.539062 0.078125 6.78125 0.078125 C 5.03125 0.078125 3.554688 -0.492188 2.359375 -1.640625 C 1.160156 -2.785156 0.5625 -4.191406 0.5625 -5.859375 C 0.5625 -7.535156 1.160156 -8.941406 2.359375 -10.078125 Z M 6.8125 -10.015625 C 5.644531 -10.015625 4.644531 -9.613281 3.8125 -8.8125 C 2.988281 -8.007812 2.578125 -7.023438 2.578125 -5.859375 C 2.578125 -4.703125 2.992188 -3.71875 3.828125 -2.90625 C 4.660156 -2.09375 5.648438 -1.6875 6.796875 -1.6875 C 7.953125 -1.6875 8.9375 -2.09375 9.75 -2.90625 C 10.570312 -3.71875 10.984375 -4.703125 10.984375 -5.859375 C 10.984375 -7.023438 10.570312 -8.007812 9.75 -8.8125 C 8.9375 -9.613281 7.957031 -10.015625 6.8125 -10.015625 Z M 6.8125 -10.015625 "/></g></g></g><g fill="#3d3b3a" fill-opacity="1"><g transform="translate(234.071367, 238.401168)"><g><path d="M 11.71875 0 L 9.78125 0 L 3.515625 -8.421875 L 3.515625 0 L 1.546875 0 L 1.546875 -11.734375 L 3.484375 -11.734375 L 9.78125 -3.296875 L 9.78125 -11.734375 L 11.71875 -11.734375 Z M 11.71875 0 "/></g></g></g><g fill="#3d3b3a" fill-opacity="1"><g transform="translate(254.063776, 238.401168)"><g><path d="M 9.125 -2.65625 L 3.203125 -2.65625 L 2.078125 0 L 0.015625 0 L 5.203125 -11.734375 L 7.21875 -11.734375 L 12.359375 0 L 10.25 0 Z M 8.359375 -4.40625 L 6.15625 -9.625 L 3.9375 -4.40625 Z M 8.359375 -4.40625 "/></g></g></g><g fill="#3d3b3a" fill-opacity="1"><g transform="translate(273.150532, 238.401168)"><g><path d="M 11.71875 0 L 9.78125 0 L 3.515625 -8.421875 L 3.515625 0 L 1.546875 0 L 1.546875 -11.734375 L 3.484375 -11.734375 L 9.78125 -3.296875 L 9.78125 -11.734375 L 11.71875 -11.734375 Z M 11.71875 0 "/></g></g></g><g fill="#3d3b3a" fill-opacity="1"><g transform="translate(293.14294, 238.401168)"><g><path d="M 3.515625 0 L 1.546875 0 L 1.546875 -11.734375 L 3.515625 -11.734375 Z M 3.515625 0 "/></g></g></g><g fill="#3d3b3a" fill-opacity="1"><g transform="translate(148.713547, 149.928648)"><g><path d="M 55.765625 -0.96875 C 55.984375 -0.96875 56.09375 -0.804688 56.09375 -0.484375 C 56.09375 -0.160156 55.984375 0 55.765625 0 C 54.804688 0 53.253906 -0.0507812 51.109375 -0.15625 C 49.078125 -0.269531 47.578125 -0.328125 46.609375 -0.328125 C 45.484375 -0.328125 44.007812 -0.269531 42.1875 -0.15625 C 40.476562 -0.0507812 39.191406 0 38.328125 0 C 38.117188 0 38.015625 -0.160156 38.015625 -0.484375 C 38.015625 -0.804688 38.117188 -0.96875 38.328125 -0.96875 C 40.523438 -0.96875 42.101562 -1.164062 43.0625 -1.5625 C 44.03125 -1.96875 44.515625 -2.648438 44.515625 -3.609375 C 44.515625 -4.359375 44.222656 -5.40625 43.640625 -6.75 L 36.078125 -23.0625 L 16.953125 -23.0625 L 11.484375 -9.890625 C 10.734375 -8.066406 10.359375 -6.566406 10.359375 -5.390625 C 10.359375 -3.828125 11 -2.695312 12.28125 -2 C 13.570312 -1.3125 15.585938 -0.96875 18.328125 -0.96875 C 18.585938 -0.96875 18.71875 -0.804688 18.71875 -0.484375 C 18.71875 -0.160156 18.585938 0 18.328125 0 C 17.359375 0 15.960938 -0.0507812 14.140625 -0.15625 C 12.109375 -0.269531 10.34375 -0.328125 8.84375 -0.328125 C 7.5 -0.328125 5.914062 -0.269531 4.09375 -0.15625 C 2.488281 -0.0507812 1.175781 0 0.15625 0 C -0.101562 0 -0.234375 -0.160156 -0.234375 -0.484375 C -0.234375 -0.804688 -0.101562 -0.96875 0.15625 -0.96875 C 1.65625 -0.96875 2.925781 -1.234375 3.96875 -1.765625 C 5.019531 -2.304688 6.015625 -3.269531 6.953125 -4.65625 C 7.890625 -6.050781 8.894531 -8.035156 9.96875 -10.609375 L 26.765625 -51.03125 C 26.867188 -51.1875 27.039062 -51.265625 27.28125 -51.265625 C 27.519531 -51.265625 27.664062 -51.1875 27.71875 -51.03125 L 46.375 -11.015625 C 47.601562 -8.273438 48.695312 -6.195312 49.65625 -4.78125 C 50.625 -3.363281 51.578125 -2.375 52.515625 -1.8125 C 53.453125 -1.25 54.535156 -0.96875 55.765625 -0.96875 Z M 17.59375 -24.515625 L 35.359375 -24.515625 L 25.953125 -44.6875 Z M 17.59375 -24.515625 "/></g></g></g><g fill="#3d3b3a" fill-opacity="1"><g transform="translate(173.274899, 189.169223)"><g><path d="M 64.84375 -0.96875 C 65.007812 -0.96875 65.09375 -0.804688 65.09375 -0.484375 C 65.09375 -0.160156 65.007812 0 64.84375 0 C 63.1875 0 61.875 -0.0234375 60.90625 -0.078125 L 55.53125 -0.15625 L 50.546875 -0.078125 C 49.742188 -0.0234375 48.617188 0 47.171875 0 C 47.066406 0 47.015625 -0.160156 47.015625 -0.484375 C 47.015625 -0.804688 47.066406 -0.96875 47.171875 -0.96875 C 49.046875 -0.96875 50.425781 -1.113281 51.3125 -1.40625 C 52.195312 -1.695312 52.785156 -2.21875 53.078125 -2.96875 C 53.367188 -3.71875 53.460938 -4.898438 53.359375 -6.515625 L 52 -43.875 L 33.1875 -0.5625 C 33.082031 -0.34375 32.867188 -0.234375 32.546875 -0.234375 C 32.273438 -0.234375 32.035156 -0.34375 31.828125 -0.5625 L 12.21875 -43.5625 L 12.140625 -43.71875 L 11.484375 -8.359375 C 11.429688 -5.566406 11.882812 -3.632812 12.84375 -2.5625 C 13.8125 -1.5 15.609375 -0.96875 18.234375 -0.96875 C 18.347656 -0.96875 18.40625 -0.804688 18.40625 -0.484375 C 18.40625 -0.160156 18.347656 0 18.234375 0 C 16.734375 0 15.582031 -0.0234375 14.78125 -0.078125 L 10.453125 -0.15625 L 6.515625 -0.078125 C 5.816406 -0.0234375 4.769531 0 3.375 0 C 3.269531 0 3.21875 -0.160156 3.21875 -0.484375 C 3.21875 -0.804688 3.269531 -0.96875 3.375 -0.96875 C 5.625 -0.96875 7.21875 -1.515625 8.15625 -2.609375 C 9.09375 -3.710938 9.585938 -5.628906 9.640625 -8.359375 L 10.453125 -46.453125 C 8.785156 -48.328125 6.613281 -49.265625 3.9375 -49.265625 C 3.832031 -49.265625 3.78125 -49.421875 3.78125 -49.734375 C 3.78125 -50.054688 3.832031 -50.21875 3.9375 -50.21875 L 6.671875 -50.140625 C 7.203125 -50.085938 7.898438 -50.0625 8.765625 -50.0625 C 9.617188 -50.0625 10.335938 -50.085938 10.921875 -50.140625 C 11.515625 -50.191406 11.972656 -50.21875 12.296875 -50.21875 C 13.046875 -50.21875 13.632812 -49.960938 14.0625 -49.453125 C 14.488281 -48.953125 15.128906 -47.816406 15.984375 -46.046875 L 34.078125 -6.984375 L 52.078125 -48.21875 C 52.335938 -48.800781 52.695312 -49.28125 53.15625 -49.65625 C 53.613281 -50.03125 54.054688 -50.21875 54.484375 -50.21875 C 54.703125 -50.21875 55.050781 -50.191406 55.53125 -50.140625 C 56.007812 -50.085938 56.675781 -50.0625 57.53125 -50.0625 L 61.15625 -50.140625 C 61.6875 -50.191406 62.515625 -50.21875 63.640625 -50.21875 C 63.753906 -50.21875 63.8125 -50.054688 63.8125 -49.734375 C 63.8125 -49.421875 63.753906 -49.265625 63.640625 -49.265625 C 60.859375 -49.265625 58.890625 -48.898438 57.734375 -48.171875 C 56.585938 -47.453125 56.039062 -46.019531 56.09375 -43.875 L 57.625 -6.515625 C 57.675781 -4.847656 57.875 -3.640625 58.21875 -2.890625 C 58.570312 -2.140625 59.242188 -1.628906 60.234375 -1.359375 C 61.222656 -1.097656 62.757812 -0.96875 64.84375 -0.96875 Z M 64.84375 -0.96875 "/></g></g></g><g clip-path="url(#1c4b61b069)"><g clip-path="url(#79ef6a513c)"><g clip-path="url(#f75e71c9f1)"><path fill="#ffffff" d="M 194.753906 124.605469 L 206.828125 131.890625 L 179.527344 177.128906 L 167.453125 169.839844 Z M 194.753906 124.605469 " fill-opacity="1" fill-rule="nonzero"/></g></g></g><g clip-path="url(#35fced0d33)"><g clip-path="url(#504615ae9a)"><g clip-path="url(#bab53b259f)"><path fill="#ffffff" d="M 178.839844 131.804688 L 195.296875 141.738281 L 185.171875 158.511719 L 168.714844 148.582031 Z M 178.839844 131.804688 " fill-opacity="1" fill-rule="nonzero"/></g></g></g><g clip-path="url(#48c5d62e94)"><g clip-path="url(#3cb1a47ebf)"><g clip-path="url(#8f6891696d)"><path fill="#ffffff" d="M 197.007812 133.59375 L 213.445312 143.515625 L 204.40625 158.492188 L 187.96875 148.570312 Z M 197.007812 133.59375 " fill-opacity="1" fill-rule="nonzero"/></g></g></g><path stroke-linecap="butt" transform="matrix(0.431053, -0.613753, 0.613753, 0.431053, 162.46394, 183.096742)" fill="none" stroke-linejoin="miter" d="M 0.000822678 1.000125 L 116.884887 0.999427 " stroke="#3d3b3a" stroke-width="2" stroke-opacity="1" stroke-miterlimit="4"/><g fill="#3d3b3a" fill-opacity="1"><g transform="translate(127.826965, 262.353315)"><g><path d="M 4.03125 0.15625 C 2.863281 0.15625 2.007812 -0.144531 1.46875 -0.75 C 0.9375 -1.363281 0.671875 -2.125 0.671875 -3.03125 C 0.671875 -3.300781 0.695312 -3.601562 0.75 -3.9375 C 0.90625 -4.769531 1.222656 -5.492188 1.703125 -6.109375 C 2.179688 -6.722656 2.753906 -7.191406 3.421875 -7.515625 C 4.085938 -7.835938 4.773438 -8 5.484375 -8 C 5.816406 -8 6.160156 -7.960938 6.515625 -7.890625 C 6.878906 -7.816406 7.160156 -7.734375 7.359375 -7.640625 C 7.410156 -7.597656 7.441406 -7.5625 7.453125 -7.53125 C 7.460938 -7.5 7.460938 -7.4375 7.453125 -7.34375 L 7.25 -5.65625 C 7.25 -5.632812 7.226562 -5.625 7.1875 -5.625 C 7.144531 -5.625 7.125 -5.632812 7.125 -5.65625 C 6.976562 -6.289062 6.71875 -6.78125 6.34375 -7.125 C 5.96875 -7.476562 5.507812 -7.65625 4.96875 -7.65625 C 4.238281 -7.65625 3.625 -7.363281 3.125 -6.78125 C 2.625 -6.195312 2.300781 -5.390625 2.15625 -4.359375 C 2.113281 -4.003906 2.09375 -3.660156 2.09375 -3.328125 C 2.09375 -2.710938 2.171875 -2.160156 2.328125 -1.671875 C 2.484375 -1.179688 2.710938 -0.796875 3.015625 -0.515625 C 3.328125 -0.234375 3.6875 -0.09375 4.09375 -0.09375 C 4.519531 -0.09375 4.945312 -0.25 5.375 -0.5625 C 5.8125 -0.875 6.273438 -1.359375 6.765625 -2.015625 C 6.773438 -2.023438 6.789062 -2.03125 6.8125 -2.03125 C 6.84375 -2.03125 6.867188 -2.023438 6.890625 -2.015625 C 6.910156 -2.003906 6.914062 -1.988281 6.90625 -1.96875 L 6.5625 -0.53125 C 6.539062 -0.425781 6.515625 -0.351562 6.484375 -0.3125 C 6.460938 -0.28125 6.414062 -0.253906 6.34375 -0.234375 C 5.582031 0.0234375 4.8125 0.15625 4.03125 0.15625 Z M 4.03125 0.15625 "/></g></g></g><g fill="#3d3b3a" fill-opacity="1"><g transform="translate(138.992139, 262.353315)"><g><path d="M 1.1875 0.109375 C 0.78125 0.109375 0.578125 -0.128906 0.578125 -0.609375 C 0.578125 -0.773438 0.59375 -0.945312 0.625 -1.125 L 1.78125 -7.40625 C 1.8125 -7.570312 1.828125 -7.710938 1.828125 -7.828125 C 1.828125 -8.066406 1.742188 -8.1875 1.578125 -8.1875 C 1.484375 -8.1875 1.3125 -8.128906 1.0625 -8.015625 L 1.046875 -8.015625 C 1.003906 -8.015625 0.976562 -8.035156 0.96875 -8.078125 C 0.957031 -8.128906 0.96875 -8.15625 1 -8.15625 L 2.953125 -9.125 L 2.984375 -9.125 C 3.015625 -9.125 3.046875 -9.109375 3.078125 -9.078125 C 3.109375 -9.054688 3.117188 -9.035156 3.109375 -9.015625 L 1.703125 -1.125 C 1.671875 -1 1.65625 -0.894531 1.65625 -0.8125 C 1.65625 -0.625 1.71875 -0.53125 1.84375 -0.53125 C 1.925781 -0.53125 2.019531 -0.566406 2.125 -0.640625 C 2.238281 -0.710938 2.367188 -0.820312 2.515625 -0.96875 C 2.535156 -0.988281 2.550781 -1 2.5625 -1 C 2.59375 -1 2.613281 -0.984375 2.625 -0.953125 C 2.644531 -0.921875 2.640625 -0.894531 2.609375 -0.875 C 2.328125 -0.53125 2.078125 -0.28125 1.859375 -0.125 C 1.640625 0.03125 1.414062 0.109375 1.1875 0.109375 Z M 1.1875 0.109375 "/></g></g></g><g fill="#3d3b3a" fill-opacity="1"><g transform="translate(145.871195, 262.353315)"><g><path d="M 1.984375 0.171875 C 1.429688 0.171875 1.007812 -0.00390625 0.71875 -0.359375 C 0.4375 -0.710938 0.296875 -1.175781 0.296875 -1.75 C 0.296875 -2 0.316406 -2.222656 0.359375 -2.421875 C 0.441406 -2.929688 0.617188 -3.378906 0.890625 -3.765625 C 1.171875 -4.160156 1.503906 -4.46875 1.890625 -4.6875 C 2.273438 -4.90625 2.6875 -5.015625 3.125 -5.015625 C 3.6875 -5.015625 4.117188 -4.84375 4.421875 -4.5 C 4.722656 -4.164062 4.875 -3.710938 4.875 -3.140625 C 4.875 -2.921875 4.847656 -2.679688 4.796875 -2.421875 C 4.679688 -1.867188 4.476562 -1.394531 4.1875 -1 C 3.90625 -0.613281 3.566406 -0.320312 3.171875 -0.125 C 2.785156 0.0703125 2.390625 0.171875 1.984375 0.171875 Z M 2.421875 -0.140625 C 2.679688 -0.140625 2.910156 -0.289062 3.109375 -0.59375 C 3.304688 -0.90625 3.453125 -1.332031 3.546875 -1.875 C 3.609375 -2.195312 3.640625 -2.53125 3.640625 -2.875 C 3.640625 -3.414062 3.554688 -3.859375 3.390625 -4.203125 C 3.222656 -4.546875 3 -4.71875 2.71875 -4.71875 C 2.46875 -4.71875 2.242188 -4.570312 2.046875 -4.28125 C 1.847656 -3.988281 1.695312 -3.550781 1.59375 -2.96875 C 1.539062 -2.644531 1.515625 -2.3125 1.515625 -1.96875 C 1.515625 -1.425781 1.59375 -0.984375 1.75 -0.640625 C 1.90625 -0.304688 2.128906 -0.140625 2.421875 -0.140625 Z M 2.421875 -0.140625 "/></g></g></g><g fill="#3d3b3a" fill-opacity="1"><g transform="translate(154.773897, 262.353315)"><g><path d="M 5.609375 -1 C 5.617188 -1.007812 5.628906 -1.015625 5.640625 -1.015625 C 5.671875 -1.015625 5.691406 -1 5.703125 -0.96875 C 5.722656 -0.945312 5.722656 -0.921875 5.703125 -0.890625 C 5.398438 -0.535156 5.128906 -0.28125 4.890625 -0.125 C 4.660156 0.03125 4.421875 0.109375 4.171875 0.109375 C 3.773438 0.109375 3.578125 -0.109375 3.578125 -0.546875 C 3.578125 -0.671875 3.59375 -0.8125 3.625 -0.96875 L 3.828125 -2.109375 C 3.535156 -1.378906 3.195312 -0.816406 2.8125 -0.421875 C 2.425781 -0.0351562 2.019531 0.15625 1.59375 0.15625 C 1.019531 0.15625 0.734375 -0.1875 0.734375 -0.875 C 0.734375 -1.082031 0.753906 -1.289062 0.796875 -1.5 L 1.234375 -3.734375 C 1.253906 -3.859375 1.265625 -3.957031 1.265625 -4.03125 C 1.265625 -4.226562 1.195312 -4.328125 1.0625 -4.328125 C 0.976562 -4.328125 0.890625 -4.289062 0.796875 -4.21875 C 0.703125 -4.144531 0.578125 -4.035156 0.421875 -3.890625 C 0.398438 -3.867188 0.378906 -3.859375 0.359375 -3.859375 C 0.335938 -3.859375 0.316406 -3.875 0.296875 -3.90625 C 0.285156 -3.9375 0.289062 -3.960938 0.3125 -3.984375 C 0.59375 -4.316406 0.84375 -4.5625 1.0625 -4.71875 C 1.28125 -4.882812 1.503906 -4.96875 1.734375 -4.96875 C 2.148438 -4.96875 2.359375 -4.726562 2.359375 -4.25 C 2.359375 -4.132812 2.335938 -3.960938 2.296875 -3.734375 L 1.90625 -1.734375 C 1.863281 -1.546875 1.84375 -1.359375 1.84375 -1.171875 C 1.84375 -0.753906 1.972656 -0.546875 2.234375 -0.546875 C 2.472656 -0.546875 2.71875 -0.695312 2.96875 -1 C 3.21875 -1.3125 3.453125 -1.757812 3.671875 -2.34375 C 3.898438 -2.9375 4.085938 -3.644531 4.234375 -4.46875 L 4.28125 -4.703125 C 4.320312 -4.867188 4.554688 -4.953125 4.984375 -4.953125 C 5.117188 -4.953125 5.21875 -4.941406 5.28125 -4.921875 C 5.351562 -4.898438 5.390625 -4.878906 5.390625 -4.859375 L 5.34375 -4.59375 C 5.257812 -4.195312 5.210938 -3.972656 5.203125 -3.921875 L 4.6875 -1.125 C 4.675781 -1.039062 4.671875 -0.945312 4.671875 -0.84375 C 4.671875 -0.613281 4.738281 -0.5 4.875 -0.5 C 5.050781 -0.5 5.296875 -0.664062 5.609375 -1 Z M 5.609375 -1 "/></g></g></g><g fill="#3d3b3a" fill-opacity="1"><g transform="translate(164.531308, 262.353315)"><g><path d="M 4.5625 -1.125 C 4.539062 -1 4.53125 -0.894531 4.53125 -0.8125 C 4.53125 -0.625 4.59375 -0.53125 4.71875 -0.53125 C 4.800781 -0.53125 4.894531 -0.566406 5 -0.640625 C 5.101562 -0.710938 5.234375 -0.820312 5.390625 -0.96875 C 5.398438 -0.988281 5.414062 -1 5.4375 -1 C 5.457031 -1 5.472656 -0.984375 5.484375 -0.953125 C 5.503906 -0.921875 5.503906 -0.894531 5.484375 -0.875 C 5.203125 -0.53125 4.953125 -0.28125 4.734375 -0.125 C 4.515625 0.03125 4.285156 0.109375 4.046875 0.109375 C 3.648438 0.109375 3.453125 -0.128906 3.453125 -0.609375 C 3.453125 -0.773438 3.46875 -0.945312 3.5 -1.125 L 3.65625 -1.984375 C 3.3125 -1.304688 2.941406 -0.78125 2.546875 -0.40625 C 2.160156 -0.03125 1.765625 0.15625 1.359375 0.15625 C 1.035156 0.15625 0.765625 0.0546875 0.546875 -0.140625 C 0.335938 -0.347656 0.234375 -0.660156 0.234375 -1.078125 C 0.234375 -1.242188 0.253906 -1.410156 0.296875 -1.578125 C 0.398438 -2.171875 0.632812 -2.726562 1 -3.25 C 1.375 -3.78125 1.800781 -4.207031 2.28125 -4.53125 C 2.769531 -4.851562 3.242188 -5.015625 3.703125 -5.015625 C 3.890625 -5.015625 4.054688 -4.988281 4.203125 -4.9375 L 4.65625 -7.40625 C 4.675781 -7.570312 4.6875 -7.710938 4.6875 -7.828125 C 4.6875 -8.066406 4.609375 -8.1875 4.453125 -8.1875 C 4.347656 -8.1875 4.171875 -8.128906 3.921875 -8.015625 L 3.90625 -8.015625 C 3.863281 -8.015625 3.835938 -8.035156 3.828125 -8.078125 C 3.828125 -8.128906 3.84375 -8.15625 3.875 -8.15625 L 5.828125 -9.125 L 5.84375 -9.125 C 5.882812 -9.125 5.914062 -9.109375 5.9375 -9.078125 C 5.96875 -9.054688 5.976562 -9.035156 5.96875 -9.015625 Z M 1.984375 -0.71875 C 2.253906 -0.71875 2.515625 -0.84375 2.765625 -1.09375 C 3.023438 -1.34375 3.25 -1.648438 3.4375 -2.015625 C 3.625 -2.378906 3.757812 -2.726562 3.84375 -3.0625 L 3.90625 -3.390625 C 3.945312 -3.710938 3.875 -3.960938 3.6875 -4.140625 C 3.5 -4.316406 3.265625 -4.40625 2.984375 -4.40625 C 2.160156 -4.40625 1.628906 -3.691406 1.390625 -2.265625 C 1.359375 -2.066406 1.34375 -1.859375 1.34375 -1.640625 C 1.34375 -1.023438 1.554688 -0.71875 1.984375 -0.71875 Z M 1.984375 -0.71875 "/></g></g></g><g fill="#3d3b3a" fill-opacity="1"><g transform="translate(173.961922, 262.353315)"><g/></g></g><g fill="#3d3b3a" fill-opacity="1"><g transform="translate(180.67758, 262.353315)"><g><path d="M 6.53125 -7.859375 C 6.59375 -7.859375 6.617188 -7.820312 6.609375 -7.75 L 6.34375 -6.0625 C 6.34375 -6.039062 6.320312 -6.03125 6.28125 -6.03125 C 6.257812 -6.03125 6.238281 -6.035156 6.21875 -6.046875 C 6.195312 -6.054688 6.1875 -6.066406 6.1875 -6.078125 C 6.15625 -6.535156 5.988281 -6.898438 5.6875 -7.171875 C 5.394531 -7.453125 5.019531 -7.59375 4.5625 -7.59375 L 4.34375 -7.59375 C 4.09375 -7.59375 3.910156 -7.570312 3.796875 -7.53125 C 3.691406 -7.5 3.617188 -7.429688 3.578125 -7.328125 C 3.535156 -7.234375 3.492188 -7.066406 3.453125 -6.828125 L 3 -4.265625 L 4.421875 -4.265625 C 4.804688 -4.265625 5.097656 -4.335938 5.296875 -4.484375 C 5.503906 -4.628906 5.644531 -4.875 5.71875 -5.21875 C 5.726562 -5.257812 5.757812 -5.273438 5.8125 -5.265625 C 5.863281 -5.265625 5.882812 -5.242188 5.875 -5.203125 C 5.84375 -4.972656 5.789062 -4.710938 5.71875 -4.421875 C 5.71875 -4.390625 5.695312 -4.28125 5.65625 -4.09375 C 5.632812 -3.9375 5.609375 -3.738281 5.578125 -3.5 C 5.554688 -3.40625 5.535156 -3.296875 5.515625 -3.171875 C 5.503906 -3.054688 5.484375 -2.929688 5.453125 -2.796875 C 5.453125 -2.753906 5.425781 -2.734375 5.375 -2.734375 C 5.320312 -2.742188 5.300781 -2.769531 5.3125 -2.8125 C 5.320312 -2.925781 5.328125 -3.007812 5.328125 -3.0625 C 5.328125 -3.332031 5.238281 -3.539062 5.0625 -3.6875 C 4.894531 -3.832031 4.648438 -3.90625 4.328125 -3.90625 L 2.9375 -3.90625 L 2.421875 -1.0625 C 2.398438 -0.914062 2.390625 -0.789062 2.390625 -0.6875 C 2.390625 -0.519531 2.4375 -0.40625 2.53125 -0.34375 C 2.625 -0.289062 2.789062 -0.265625 3.03125 -0.265625 L 3.359375 -0.265625 C 3.847656 -0.265625 4.328125 -0.421875 4.796875 -0.734375 C 5.265625 -1.046875 5.65625 -1.46875 5.96875 -2 C 5.96875 -2.019531 5.992188 -2.023438 6.046875 -2.015625 C 6.097656 -2.003906 6.113281 -1.988281 6.09375 -1.96875 C 5.96875 -1.539062 5.828125 -0.945312 5.671875 -0.1875 C 5.648438 -0.113281 5.628906 -0.0625 5.609375 -0.03125 C 5.585938 -0.0078125 5.539062 0 5.46875 0 L 0.25 0 C 0.226562 0 0.21875 -0.0234375 0.21875 -0.078125 C 0.21875 -0.128906 0.226562 -0.15625 0.25 -0.15625 C 0.488281 -0.15625 0.660156 -0.175781 0.765625 -0.21875 C 0.878906 -0.257812 0.960938 -0.335938 1.015625 -0.453125 C 1.078125 -0.566406 1.132812 -0.753906 1.1875 -1.015625 L 2.203125 -6.84375 C 2.234375 -7 2.25 -7.140625 2.25 -7.265625 C 2.25 -7.441406 2.203125 -7.554688 2.109375 -7.609375 C 2.015625 -7.671875 1.835938 -7.703125 1.578125 -7.703125 C 1.566406 -7.703125 1.5625 -7.726562 1.5625 -7.78125 C 1.5625 -7.832031 1.566406 -7.859375 1.578125 -7.859375 Z M 6.53125 -7.859375 "/></g></g></g><g fill="#3d3b3a" fill-opacity="1"><g transform="translate(191.126299, 262.353315)"><g><path d="M 5.609375 -0.96875 C 5.628906 -0.988281 5.640625 -1 5.640625 -1 C 5.671875 -1 5.691406 -0.984375 5.703125 -0.953125 C 5.722656 -0.921875 5.722656 -0.894531 5.703125 -0.875 C 5.421875 -0.53125 5.164062 -0.28125 4.9375 -0.125 C 4.71875 0.03125 4.492188 0.109375 4.265625 0.109375 C 3.859375 0.109375 3.65625 -0.125 3.65625 -0.59375 C 3.65625 -0.71875 3.675781 -0.894531 3.71875 -1.125 L 4.09375 -3.125 C 4.132812 -3.351562 4.15625 -3.539062 4.15625 -3.6875 C 4.15625 -4.09375 4.019531 -4.296875 3.75 -4.296875 C 3.507812 -4.296875 3.265625 -4.144531 3.015625 -3.84375 C 2.765625 -3.539062 2.523438 -3.09375 2.296875 -2.5 C 2.078125 -1.914062 1.894531 -1.210938 1.75 -0.390625 L 1.703125 -0.15625 C 1.660156 0.0078125 1.425781 0.09375 1 0.09375 C 0.726562 0.09375 0.59375 0.0625 0.59375 0 L 0.640625 -0.265625 C 0.722656 -0.660156 0.769531 -0.882812 0.78125 -0.9375 L 1.296875 -3.734375 C 1.316406 -3.804688 1.328125 -3.898438 1.328125 -4.015625 C 1.328125 -4.242188 1.253906 -4.359375 1.109375 -4.359375 C 0.929688 -4.359375 0.6875 -4.1875 0.375 -3.84375 C 0.363281 -3.84375 0.351562 -3.84375 0.34375 -3.84375 C 0.3125 -3.84375 0.285156 -3.851562 0.265625 -3.875 C 0.253906 -3.90625 0.257812 -3.9375 0.28125 -3.96875 C 0.582031 -4.3125 0.851562 -4.5625 1.09375 -4.71875 C 1.332031 -4.882812 1.570312 -4.96875 1.8125 -4.96875 C 2.207031 -4.96875 2.40625 -4.742188 2.40625 -4.296875 C 2.40625 -4.171875 2.390625 -4.035156 2.359375 -3.890625 L 2.15625 -2.734375 C 2.457031 -3.472656 2.796875 -4.035156 3.171875 -4.421875 C 3.554688 -4.816406 3.960938 -5.015625 4.390625 -5.015625 C 4.960938 -5.015625 5.25 -4.664062 5.25 -3.96875 C 5.25 -3.8125 5.226562 -3.609375 5.1875 -3.359375 L 4.78125 -1.125 C 4.75 -1 4.734375 -0.894531 4.734375 -0.8125 C 4.734375 -0.625 4.800781 -0.53125 4.9375 -0.53125 C 5.019531 -0.53125 5.113281 -0.566406 5.21875 -0.640625 C 5.332031 -0.710938 5.460938 -0.820312 5.609375 -0.96875 Z M 5.609375 -0.96875 "/></g></g></g><g fill="#3d3b3a" fill-opacity="1"><g transform="translate(200.871148, 262.353315)"><g><path d="M 4.953125 -4.984375 C 4.992188 -4.984375 5.015625 -4.914062 5.015625 -4.78125 C 5.015625 -4.632812 4.992188 -4.484375 4.953125 -4.328125 C 4.921875 -4.179688 4.890625 -4.125 4.859375 -4.15625 C 4.585938 -4.332031 4.273438 -4.429688 3.921875 -4.453125 C 4.117188 -4.210938 4.21875 -3.910156 4.21875 -3.546875 C 4.21875 -3.378906 4.195312 -3.226562 4.15625 -3.09375 C 4.039062 -2.53125 3.769531 -2.078125 3.34375 -1.734375 C 2.914062 -1.398438 2.445312 -1.234375 1.9375 -1.234375 C 1.832031 -1.234375 1.753906 -1.238281 1.703125 -1.25 C 1.648438 -1.144531 1.625 -1.0625 1.625 -1 C 1.59375 -0.789062 1.660156 -0.617188 1.828125 -0.484375 C 2.003906 -0.347656 2.285156 -0.179688 2.671875 0.015625 C 3.003906 0.171875 3.269531 0.304688 3.46875 0.421875 C 3.664062 0.546875 3.832031 0.703125 3.96875 0.890625 C 4.113281 1.085938 4.1875 1.320312 4.1875 1.59375 C 4.1875 1.976562 4.054688 2.316406 3.796875 2.609375 C 3.535156 2.910156 3.191406 3.140625 2.765625 3.296875 C 2.335938 3.453125 1.878906 3.53125 1.390625 3.53125 C 0.773438 3.53125 0.289062 3.410156 -0.0625 3.171875 C -0.414062 2.929688 -0.59375 2.632812 -0.59375 2.28125 C -0.59375 1.945312 -0.441406 1.632812 -0.140625 1.34375 C 0.148438 1.050781 0.566406 0.757812 1.109375 0.46875 C 0.804688 0.257812 0.65625 0.046875 0.65625 -0.171875 C 0.65625 -0.347656 0.722656 -0.523438 0.859375 -0.703125 C 1.003906 -0.878906 1.210938 -1.078125 1.484375 -1.296875 C 1.191406 -1.378906 0.960938 -1.539062 0.796875 -1.78125 C 0.640625 -2.03125 0.5625 -2.320312 0.5625 -2.65625 C 0.5625 -2.75 0.578125 -2.894531 0.609375 -3.09375 C 0.710938 -3.625 0.972656 -4.0625 1.390625 -4.40625 C 1.816406 -4.757812 2.296875 -4.9375 2.828125 -4.9375 C 3.191406 -4.9375 3.484375 -4.847656 3.703125 -4.671875 C 4.148438 -4.878906 4.566406 -4.984375 4.953125 -4.984375 Z M 3.0625 -2.984375 C 3.082031 -3.148438 3.09375 -3.285156 3.09375 -3.390625 C 3.09375 -3.734375 3.046875 -4.03125 2.953125 -4.28125 C 2.859375 -4.539062 2.71875 -4.671875 2.53125 -4.671875 C 2.34375 -4.671875 2.171875 -4.523438 2.015625 -4.234375 C 1.859375 -3.953125 1.753906 -3.601562 1.703125 -3.1875 C 1.691406 -2.976562 1.6875 -2.832031 1.6875 -2.75 C 1.6875 -2.382812 1.738281 -2.085938 1.84375 -1.859375 C 1.957031 -1.628906 2.097656 -1.515625 2.265625 -1.515625 C 2.453125 -1.515625 2.617188 -1.648438 2.765625 -1.921875 C 2.921875 -2.191406 3.019531 -2.546875 3.0625 -2.984375 Z M 3.15625 2.1875 C 3.15625 1.875 3.035156 1.617188 2.796875 1.421875 C 2.566406 1.234375 2.226562 1.03125 1.78125 0.8125 C 1.601562 0.738281 1.4375 0.65625 1.28125 0.5625 C 0.789062 0.957031 0.546875 1.40625 0.546875 1.90625 C 0.546875 2.257812 0.6875 2.550781 0.96875 2.78125 C 1.25 3.019531 1.601562 3.140625 2.03125 3.140625 C 2.414062 3.140625 2.695312 3.046875 2.875 2.859375 C 3.0625 2.671875 3.15625 2.445312 3.15625 2.1875 Z M 3.15625 2.1875 "/></g></g></g><g fill="#3d3b3a" fill-opacity="1"><g transform="translate(209.522467, 262.353315)"><g><path d="M 2.171875 -6.28125 C 1.953125 -6.28125 1.773438 -6.34375 1.640625 -6.46875 C 1.515625 -6.601562 1.453125 -6.78125 1.453125 -7 C 1.453125 -7.207031 1.515625 -7.375 1.640625 -7.5 C 1.773438 -7.625 1.953125 -7.6875 2.171875 -7.6875 C 2.390625 -7.6875 2.5625 -7.625 2.6875 -7.5 C 2.8125 -7.375 2.875 -7.207031 2.875 -7 C 2.875 -6.769531 2.8125 -6.59375 2.6875 -6.46875 C 2.5625 -6.34375 2.390625 -6.28125 2.171875 -6.28125 Z M 1.328125 0.109375 C 0.929688 0.109375 0.734375 -0.125 0.734375 -0.59375 C 0.734375 -0.71875 0.753906 -0.894531 0.796875 -1.125 L 1.3125 -3.734375 C 1.332031 -3.847656 1.34375 -3.945312 1.34375 -4.03125 C 1.34375 -4.132812 1.320312 -4.210938 1.28125 -4.265625 C 1.238281 -4.328125 1.1875 -4.359375 1.125 -4.359375 C 0.945312 -4.359375 0.707031 -4.1875 0.40625 -3.84375 C 0.394531 -3.84375 0.378906 -3.84375 0.359375 -3.84375 C 0.328125 -3.84375 0.300781 -3.851562 0.28125 -3.875 C 0.269531 -3.90625 0.273438 -3.9375 0.296875 -3.96875 C 0.585938 -4.3125 0.851562 -4.5625 1.09375 -4.71875 C 1.34375 -4.882812 1.585938 -4.96875 1.828125 -4.96875 C 2.222656 -4.96875 2.421875 -4.75 2.421875 -4.3125 C 2.421875 -4.164062 2.40625 -4.023438 2.375 -3.890625 L 1.84375 -1.125 C 1.832031 -1.039062 1.828125 -0.941406 1.828125 -0.828125 C 1.828125 -0.628906 1.890625 -0.53125 2.015625 -0.53125 C 2.097656 -0.53125 2.191406 -0.566406 2.296875 -0.640625 C 2.398438 -0.710938 2.523438 -0.820312 2.671875 -0.96875 C 2.691406 -0.988281 2.710938 -1 2.734375 -1 C 2.753906 -1 2.769531 -0.984375 2.78125 -0.953125 C 2.800781 -0.921875 2.800781 -0.894531 2.78125 -0.875 C 2.5 -0.53125 2.242188 -0.28125 2.015625 -0.125 C 1.796875 0.03125 1.566406 0.109375 1.328125 0.109375 Z M 1.328125 0.109375 "/></g></g></g><g fill="#3d3b3a" fill-opacity="1"><g transform="translate(216.401524, 262.353315)"><g><path d="M 5.609375 -0.96875 C 5.628906 -0.988281 5.640625 -1 5.640625 -1 C 5.671875 -1 5.691406 -0.984375 5.703125 -0.953125 C 5.722656 -0.921875 5.722656 -0.894531 5.703125 -0.875 C 5.421875 -0.53125 5.164062 -0.28125 4.9375 -0.125 C 4.71875 0.03125 4.492188 0.109375 4.265625 0.109375 C 3.859375 0.109375 3.65625 -0.125 3.65625 -0.59375 C 3.65625 -0.71875 3.675781 -0.894531 3.71875 -1.125 L 4.09375 -3.125 C 4.132812 -3.351562 4.15625 -3.539062 4.15625 -3.6875 C 4.15625 -4.09375 4.019531 -4.296875 3.75 -4.296875 C 3.507812 -4.296875 3.265625 -4.144531 3.015625 -3.84375 C 2.765625 -3.539062 2.523438 -3.09375 2.296875 -2.5 C 2.078125 -1.914062 1.894531 -1.210938 1.75 -0.390625 L 1.703125 -0.15625 C 1.660156 0.0078125 1.425781 0.09375 1 0.09375 C 0.726562 0.09375 0.59375 0.0625 0.59375 0 L 0.640625 -0.265625 C 0.722656 -0.660156 0.769531 -0.882812 0.78125 -0.9375 L 1.296875 -3.734375 C 1.316406 -3.804688 1.328125 -3.898438 1.328125 -4.015625 C 1.328125 -4.242188 1.253906 -4.359375 1.109375 -4.359375 C 0.929688 -4.359375 0.6875 -4.1875 0.375 -3.84375 C 0.363281 -3.84375 0.351562 -3.84375 0.34375 -3.84375 C 0.3125 -3.84375 0.285156 -3.851562 0.265625 -3.875 C 0.253906 -3.90625 0.257812 -3.9375 0.28125 -3.96875 C 0.582031 -4.3125 0.851562 -4.5625 1.09375 -4.71875 C 1.332031 -4.882812 1.570312 -4.96875 1.8125 -4.96875 C 2.207031 -4.96875 2.40625 -4.742188 2.40625 -4.296875 C 2.40625 -4.171875 2.390625 -4.035156 2.359375 -3.890625 L 2.15625 -2.734375 C 2.457031 -3.472656 2.796875 -4.035156 3.171875 -4.421875 C 3.554688 -4.816406 3.960938 -5.015625 4.390625 -5.015625 C 4.960938 -5.015625 5.25 -4.664062 5.25 -3.96875 C 5.25 -3.8125 5.226562 -3.609375 5.1875 -3.359375 L 4.78125 -1.125 C 4.75 -1 4.734375 -0.894531 4.734375 -0.8125 C 4.734375 -0.625 4.800781 -0.53125 4.9375 -0.53125 C 5.019531 -0.53125 5.113281 -0.566406 5.21875 -0.640625 C 5.332031 -0.710938 5.460938 -0.820312 5.609375 -0.96875 Z M 5.609375 -0.96875 "/></g></g></g><g fill="#3d3b3a" fill-opacity="1"><g transform="translate(226.146373, 262.353315)"><g><path d="M 3.390625 -5.015625 C 3.710938 -5.015625 3.960938 -4.957031 4.140625 -4.84375 C 4.316406 -4.738281 4.40625 -4.59375 4.40625 -4.40625 C 4.40625 -4.03125 4.125 -3.675781 3.5625 -3.34375 C 3.007812 -3.007812 2.335938 -2.765625 1.546875 -2.609375 C 1.523438 -2.429688 1.515625 -2.253906 1.515625 -2.078125 C 1.515625 -1.578125 1.617188 -1.171875 1.828125 -0.859375 C 2.035156 -0.554688 2.34375 -0.40625 2.75 -0.40625 C 2.925781 -0.40625 3.117188 -0.4375 3.328125 -0.5 C 3.535156 -0.5625 3.722656 -0.660156 3.890625 -0.796875 L 3.90625 -0.796875 C 3.925781 -0.796875 3.945312 -0.78125 3.96875 -0.75 C 3.988281 -0.726562 3.988281 -0.707031 3.96875 -0.6875 C 3.664062 -0.394531 3.347656 -0.179688 3.015625 -0.046875 C 2.679688 0.0859375 2.347656 0.15625 2.015625 0.15625 C 1.429688 0.15625 0.992188 -0.0195312 0.703125 -0.375 C 0.421875 -0.726562 0.28125 -1.171875 0.28125 -1.703125 C 0.28125 -1.890625 0.300781 -2.097656 0.34375 -2.328125 C 0.425781 -2.773438 0.609375 -3.203125 0.890625 -3.609375 C 1.179688 -4.023438 1.546875 -4.363281 1.984375 -4.625 C 2.421875 -4.882812 2.890625 -5.015625 3.390625 -5.015625 Z M 3.125 -4.078125 C 3.132812 -4.109375 3.140625 -4.15625 3.140625 -4.21875 C 3.140625 -4.363281 3.101562 -4.472656 3.03125 -4.546875 C 2.96875 -4.628906 2.867188 -4.671875 2.734375 -4.671875 C 2.472656 -4.671875 2.238281 -4.5 2.03125 -4.15625 C 1.820312 -3.8125 1.671875 -3.363281 1.578125 -2.8125 C 2.535156 -3.0625 3.050781 -3.484375 3.125 -4.078125 Z M 3.125 -4.078125 "/></g></g></g><g fill="#3d3b3a" fill-opacity="1"><g transform="translate(234.408039, 262.353315)"><g><path d="M 3.390625 -5.015625 C 3.710938 -5.015625 3.960938 -4.957031 4.140625 -4.84375 C 4.316406 -4.738281 4.40625 -4.59375 4.40625 -4.40625 C 4.40625 -4.03125 4.125 -3.675781 3.5625 -3.34375 C 3.007812 -3.007812 2.335938 -2.765625 1.546875 -2.609375 C 1.523438 -2.429688 1.515625 -2.253906 1.515625 -2.078125 C 1.515625 -1.578125 1.617188 -1.171875 1.828125 -0.859375 C 2.035156 -0.554688 2.34375 -0.40625 2.75 -0.40625 C 2.925781 -0.40625 3.117188 -0.4375 3.328125 -0.5 C 3.535156 -0.5625 3.722656 -0.660156 3.890625 -0.796875 L 3.90625 -0.796875 C 3.925781 -0.796875 3.945312 -0.78125 3.96875 -0.75 C 3.988281 -0.726562 3.988281 -0.707031 3.96875 -0.6875 C 3.664062 -0.394531 3.347656 -0.179688 3.015625 -0.046875 C 2.679688 0.0859375 2.347656 0.15625 2.015625 0.15625 C 1.429688 0.15625 0.992188 -0.0195312 0.703125 -0.375 C 0.421875 -0.726562 0.28125 -1.171875 0.28125 -1.703125 C 0.28125 -1.890625 0.300781 -2.097656 0.34375 -2.328125 C 0.425781 -2.773438 0.609375 -3.203125 0.890625 -3.609375 C 1.179688 -4.023438 1.546875 -4.363281 1.984375 -4.625 C 2.421875 -4.882812 2.890625 -5.015625 3.390625 -5.015625 Z M 3.125 -4.078125 C 3.132812 -4.109375 3.140625 -4.15625 3.140625 -4.21875 C 3.140625 -4.363281 3.101562 -4.472656 3.03125 -4.546875 C 2.96875 -4.628906 2.867188 -4.671875 2.734375 -4.671875 C 2.472656 -4.671875 2.238281 -4.5 2.03125 -4.15625 C 1.820312 -3.8125 1.671875 -3.363281 1.578125 -2.8125 C 2.535156 -3.0625 3.050781 -3.484375 3.125 -4.078125 Z M 3.125 -4.078125 "/></g></g></g><g fill="#3d3b3a" fill-opacity="1"><g transform="translate(242.669712, 262.353315)"><g><path d="M 3.734375 -4.96875 C 3.953125 -4.96875 4.160156 -4.882812 4.359375 -4.71875 C 4.554688 -4.5625 4.640625 -4.382812 4.609375 -4.1875 C 4.585938 -4.0625 4.523438 -3.941406 4.421875 -3.828125 C 4.328125 -3.722656 4.203125 -3.671875 4.046875 -3.671875 C 3.898438 -3.671875 3.738281 -3.742188 3.5625 -3.890625 C 3.5 -3.929688 3.4375 -3.96875 3.375 -4 C 3.320312 -4.03125 3.265625 -4.046875 3.203125 -4.046875 C 3.066406 -4.046875 2.890625 -3.820312 2.671875 -3.375 C 2.460938 -2.9375 2.265625 -2.410156 2.078125 -1.796875 C 1.890625 -1.179688 1.753906 -0.632812 1.671875 -0.15625 C 1.648438 -0.0703125 1.582031 -0.0078125 1.46875 0.03125 C 1.351562 0.0703125 1.1875 0.09375 0.96875 0.09375 C 0.6875 0.09375 0.546875 0.0625 0.546875 0 C 0.554688 -0.0625 0.582031 -0.1875 0.625 -0.375 C 0.675781 -0.570312 0.71875 -0.757812 0.75 -0.9375 L 1.265625 -3.734375 C 1.285156 -3.867188 1.296875 -3.957031 1.296875 -4 C 1.296875 -4.238281 1.21875 -4.359375 1.0625 -4.359375 C 0.894531 -4.359375 0.660156 -4.1875 0.359375 -3.84375 C 0.347656 -3.84375 0.332031 -3.84375 0.3125 -3.84375 C 0.28125 -3.84375 0.253906 -3.851562 0.234375 -3.875 C 0.222656 -3.90625 0.226562 -3.9375 0.25 -3.96875 C 0.550781 -4.3125 0.820312 -4.5625 1.0625 -4.71875 C 1.300781 -4.882812 1.539062 -4.96875 1.78125 -4.96875 C 1.988281 -4.96875 2.140625 -4.910156 2.234375 -4.796875 C 2.328125 -4.679688 2.375 -4.515625 2.375 -4.296875 C 2.375 -4.171875 2.363281 -4.035156 2.34375 -3.890625 L 2.09375 -2.5 C 2.582031 -4.144531 3.128906 -4.96875 3.734375 -4.96875 Z M 3.734375 -4.96875 "/></g></g></g></svg>